<svg xmlns="http://www.w3.org/2000/svg" width="421" height="614" viewBox="0 0 421 614" role="img" aria-label="Trading card back">
  <defs>
    <radialGradient id="vortex" cx="50%" cy="48%" r="62%">
      <stop offset="0" stop-color="#f2a047"/>
      <stop offset="0.22" stop-color="#c86a2a"/>
      <stop offset="0.48" stop-color="#663118"/>
      <stop offset="0.76" stop-color="#21130d"/>
      <stop offset="1" stop-color="#0a0706"/>
    </radialGradient>
    <linearGradient id="rim" x1="0" y1="0" x2="1" y2="1">
      <stop offset="0" stop-color="#a65e2c"/>
      <stop offset="0.5" stop-color="#2a1710"/>
      <stop offset="1" stop-color="#070504"/>
    </linearGradient>
    <filter id="grain">
      <feTurbulence type="fractalNoise" baseFrequency="0.95" numOctaves="2" stitchTiles="stitch"/>
      <feColorMatrix type="saturate" values="0"/>
      <feComponentTransfer>
        <feFuncA type="table" tableValues="0 0.18"/>
      </feComponentTransfer>
      <feBlend mode="overlay" in2="SourceGraphic"/>
    </filter>
  </defs>
  <rect width="421" height="614" rx="22" fill="#130c09"/>
  <rect x="18" y="18" width="385" height="578" rx="15" fill="url(#rim)" stroke="#050302" stroke-width="6"/>
  <rect x="34" y="34" width="353" height="546" rx="8" fill="#1b100b" stroke="#6d3c20" stroke-width="3"/>
  <g filter="url(#grain)">
    <ellipse cx="210.5" cy="307" rx="158" ry="226" fill="url(#vortex)" transform="rotate(-22 210.5 307)"/>
    <g fill="none" stroke-linecap="round">
      <path d="M105 391c64 70 190 49 225-41 28-72-20-155-101-164-77-9-139 54-128 121 10 61 77 95 132 68 49-24 64-86 32-126-29-36-84-42-119-14" stroke="#0b0705" stroke-width="43"/>
      <path d="M94 235c49-96 179-127 264-55 80 68 77 193-2 263-88 78-227 49-275-53" stroke="#d06d24" stroke-width="30" opacity="0.9"/>
      <path d="M135 405c57 43 151 30 194-34 50-74 14-180-71-209-78-27-160 20-179 94-17 68 29 134 95 146" stroke="#f3a13a" stroke-width="18" opacity="0.85"/>
      <path d="M151 204c46-45 123-51 176-7 60 50 63 142 10 197-58 61-158 54-207-10" stroke="#1a0f0a" stroke-width="25" opacity="0.9"/>
      <path d="M179 369c54 24 118-8 132-65 15-61-32-119-92-117-53 2-95 46-91 98" stroke="#e88428" stroke-width="15" opacity="0.95"/>
      <path d="M174 244c32-42 94-46 132-12 42 38 38 105-8 138-41 30-100 18-126-24" stroke="#090605" stroke-width="24"/>
      <path d="M205 354c38 5 72-25 74-63 2-39-31-72-69-70-32 2-59 26-65 57" stroke="#f0a040" stroke-width="12"/>
      <path d="M199 259c24-21 61-17 79 10 20 30 7 70-26 84-29 12-62 1-79-25" stroke="#160c08" stroke-width="20"/>
    </g>
  </g>
  <rect x="34" y="34" width="353" height="546" rx="8" fill="none" stroke="#170c08" stroke-width="8"/>
  <rect x="52" y="52" width="317" height="510" rx="4" fill="none" stroke="#9a5b2f" stroke-opacity="0.45" stroke-width="2"/>
</svg>
